<?xml version="1.0" encoding="UTF-8" standalone="no"?>
<!DOCTYPE svg PUBLIC "-//W3C//DTD SVG 1.1//EN" "http://www.w3.org/Graphics/SVG/1.1/DTD/svg11.dtd">
<svg xmlns="http://www.w3.org/2000/svg" version="1.1" viewBox="0.00 0.00 16.00 16.00">
<path fill="#4baf47" d="
  M 13.64 0.00
  L 16.00 0.00
  L 16.00 0.52
  Q 13.95 2.52 13.15 4.49
  C 11.15 9.45 10.55 16.79 2.55 12.86
  Q 2.02 12.60 1.66 13.07
  Q 0.91 14.08 0.84 15.36
  Q 0.81 15.85 0.33 15.79
  Q 0.14 15.76 0.00 15.65
  L 0.00 15.04
  Q 2.76 7.59 9.66 3.57
  Q 9.81 3.48 9.72 3.32
  L 9.58 3.09
  Q 9.47 2.91 9.28 3.02
  Q 4.39 5.71 1.51 10.49
  A 0.55 0.54 15.4 0 1 1.02 10.76
  Q 0.86 10.76 0.70 10.76
  A 0.40 0.40 0.0 0 1 0.30 10.37
  Q 0.29 9.69 0.00 9.37
  L 0.00 7.16
  C 2.14 1.31 8.13 0.48 13.64 0.00
  Z"
/>
</svg>
