<?xml version="1.0" encoding="UTF-8" standalone="no"?>
<!DOCTYPE svg PUBLIC "-//W3C//DTD SVG 1.1//EN" "http://www.w3.org/Graphics/SVG/1.1/DTD/svg11.dtd">
<svg xmlns="http://www.w3.org/2000/svg" version="1.1" viewBox="0.00 0.00 32.00 32.00">
<path fill="#2f6e14" fill-opacity="0.812" d="
  M 32.00 19.03
  L 32.00 21.18
  C 30.01 28.60 24.61 27.43 18.71 27.71
  Q 18.17 27.74 18.17 27.20
  L 18.16 21.37
  Q 18.15 20.77 18.76 20.76
  L 20.42 20.72
  A 0.72 0.72 0.0 0 0 20.99 19.58
  L 16.45 13.31
  A 0.56 0.56 0.0 0 0 15.55 13.31
  L 11.00 19.57
  A 0.73 0.73 0.0 0 0 11.58 20.73
  L 13.30 20.76
  Q 13.83 20.76 13.83 21.29
  L 13.83 27.05
  Q 13.83 27.74 13.14 27.71
  C 7.59 27.51 1.91 28.98 0.00 21.83
  L 0.00 19.77
  Q 0.67 17.09 2.78 15.45
  Q 3.17 15.14 3.10 14.64
  C 2.58 11.05 4.94 8.84 8.45 9.39
  A 0.76 0.75 18.5 0 0 9.21 9.02
  C 13.53 1.44 23.61 3.52 25.63 11.82
  A 0.83 0.81 -88.3 0 0 26.17 12.41
  Q 30.98 14.04 32.00 19.03
  Z"
/>
</svg>
